<?xml version="1.0" encoding="utf-8"?>
<!-- Generator: Adobe Illustrator 21.1.0, SVG Export Plug-In . SVG Version: 6.00 Build 0)  -->
<svg version="1.1" id="Layer_1" xmlns="http://www.w3.org/2000/svg" xmlns:xlink="http://www.w3.org/1999/xlink" x="0px" y="0px"
	 viewBox="0 0 684 653" style="enable-background:new 0 0 684 653;" xml:space="preserve">
<style type="text/css">
	.st0{fill:none;}
	.st1{fill:#12297E;}
	.st2{fill:#F9FAFA;}
	.st3{fill:#FFDC05;}
</style>
<title>clhs</title>
<path class="st0" d="M0,0h684v653H0V0z"/>
<path class="st1" d="M301.3,42.4c14.1-9.9,32.6-11.6,49-7.8c15.2,3.8,29.9,14,35,29.4c20.9,3.5,42.1,9.5,59.3,22.4
	c14.2,10.7,24.3,26.1,30.2,42.7c9.3,27.3,9.6,56.6,7.8,85.1c-0.1,23.6-0.5,47.6,5.4,70.7c1.8,5.4,4.4,12.6,11,13.2
	c7.2-1.1,12.6-6.7,17.4-11.7c16.1-18.7,28.2-40.4,43.2-59.9c3.7-4.2,7.1-9.1,12.2-11.8c1.5-0.8,3.2-1.1,4.9-0.8
	c6.1,5.8,8.4,14.7,8.2,23c0.7,14.6-3.7,28.7-6.4,42.8c12.8,3.1,26,8.7,34.1,19.7c10.3,14,10.8,32.6,8,49.1c-0.2,2.8-2.2,6.3,0.2,8.7
	c6.1,7.6,9.3,17.8,7.2,27.5c-1.3,7.3-5.4,13.6-9.7,19.5c-1.7,1.6-0.6,3.9-0.4,5.9c2.3,11.7-1.2,23.6-6.5,34
	c12.2,13.2,21.8,29.3,25.6,47c0.5,3.3,3,5.6,4.6,8.4c5.7,9.4,10.2,20.2,9.2,31.5c-0.6,7.6-4.9,14.3-11.5,18.1
	c-30.2,17.4-61.5,33.3-94.6,44.4c-44,15.1-90.2,23.4-136.5,27.7c-44.7,3.5-89.7,4.8-134.4,0.2c-25.6-2.4-51.1-6.4-76.2-12.1
	c-20.4-4.4-40.5-9.9-60.3-16.6c-31-9.9-61.2-22.4-90.5-36.4c-4.6-2.3-9.6-4-13.5-7.4C27,543.7,22,536.3,22,528
	c-0.3-10.7,5.2-20.4,11.2-28.8c2-2.9,4.8-5.4,6.4-8.5c2.8-8.9,5.5-17.9,8.1-26.9c2.3-7.4,8.9-12.6,16-15.2
	c-5.5-9.3-8.8-20.4-6.8-31.2c-8.7-4-17.9-8.6-23.3-16.9c-4.4-6.2-5.4-14.3-3.5-21.6c2.1-7.7,5.8-14.9,10.9-21
	c-6.5-12.4-11.9-26.3-9.9-40.6c1.6-12,9.2-22.5,19.1-29.2c6.8-5,14.6-8.6,22.4-11.7c-1.1-11.1-1-22.2-0.9-33.4
	c0.4-7.7,0.9-15.5,3.8-22.7c1.4-3.4,4.6-6.7,8.6-6.2c6.6,0.3,11.5,5.6,16,9.9c11.8,12.6,21.9,26.8,32.8,40.2
	c8.9,9.8,15.9,21.5,27.3,28.7c4.5,2.9,10.4,5.6,15.6,2.7c4.2-2.7,6.4-7.5,8.1-11.9c3.3-9.9,5-20.3,4.9-30.7c-0.1-12.6,0.2-25.3,0-38
	c-1.5-18-1.8-36.1,0.2-54c2.3-17.4,6.7-35,16.1-50.1c11.2-19.9,31.1-33.4,52.4-40.4c9.4-3.1,19.2-5.3,29-6.6
	C288.4,55.1,293.8,47.4,301.3,42.4z"/>
<path class="st2" d="M304.1,44.1c14.5-9.1,33-10.4,49.1-5.4c9.9,3.2,19.4,9.1,25.2,17.9c2.2,3.2,3.4,6.9,4.8,10.4
	c21.4,2.8,42.9,9.3,60.3,22.5c12.6,9.4,21.6,23.1,27.4,37.5c8.4,22.3,10.1,46.4,9.7,70c-1.1,17-1.1,34-0.6,51
	c0.9,13.2,1.8,26.6,5.7,39.3c1.8,5,4.2,10.3,9,13c4.5,2.2,9.5,0.3,13.3-2.3c5.6-4.1,10.5-8.9,14.8-14.3c12-15.3,22.3-31.7,33.4-47.6
	c5.6-7.3,10.5-15.7,19.1-19.9c7.7,9.5,7.8,22.4,6,33.9c-1.2,10.9-5.1,21.4-5.7,32.4c11.9,2.5,24.3,6.9,32.5,16.3
	c9.2,10.6,11.9,25.4,10.7,39.1c-0.3,6-1.7,12-2.7,17.9c0.7,2,2.5,3.5,3.6,5.3c5.7,7.8,7.7,18.4,4,27.5c-1.8,6-6,10.6-9.5,15.6
	c-0.5,2.8,0.8,5.6,0.9,8.4c1.5,11.2-2.3,22.2-7.6,31.8c11.6,12.6,21.3,27.4,25.5,44.2c0.7,2.5,0.9,5.3,2.5,7.5
	c6.1,8.5,11.1,18.3,12.1,28.8c0.7,7.3-1.7,15.4-7.9,19.8c-17.8,10.7-36.1,20.4-54.9,29c-6.7,3-13.3,6.4-20.3,8.7
	c-44.3,17.7-91.2,28-138.5,33.5c-23.3,2.9-46.8,3.9-70.2,4.9c-47.4,1.3-95-2-141.6-11.4c-60-11.4-117.9-32.5-172.8-59.3
	c-9-4.1-17-13-16.5-23.3c0-10,5.5-18.9,11.2-26.7c2.3-3.3,5.7-6.1,6.8-10.1c2.5-8.5,5.1-17,7.5-25.5c2.4-7.9,10.5-11.9,17.7-14.5
	c-3.8-5.7-7-11.9-8.4-18.7c-0.8-5.4-0.8-10.8,0-16.2c-8.7-3.6-17.7-7.9-23.3-15.8c-4.2-5.8-5.5-13.3-3.4-20.2
	c2-7.9,6.4-14.8,11.4-21.1c-6.8-12.3-12.5-26.1-10.8-40.4c1.8-12.3,10.4-22.7,20.8-29c6.1-3.9,12.8-6.7,19.4-9.6
	c1.9-0.5,1.1-2.6,1.1-4c-0.7-8.7-1-17.4-0.9-26.1c0-8.4,0.4-17,2.8-25.1c0.8-2.8,2.4-5.8,5.3-6.7c2.1-1,4.3,0.6,6.2,1.4
	c6.4,3.7,11.1,9.6,15.9,15c5.4,6.3,10.6,12.8,15.6,19.4c7.2,9.4,14.8,18.5,22.4,27.6c4.1,5.8,9.6,10.5,15.3,14.7
	c5,3.7,11.4,5.9,17.6,4.2c6.4-3,9.5-10,11.6-16.4c3-9.7,4.5-19.8,4.4-30c-0.1-8.7,0-17.4,0-26c0.3-13-1-26-1.7-39
	c0.7-5.6,0.8-11.3,1-17c1.3-16.9,4.6-33.9,11.7-49.4c5.1-10.1,11.3-19.8,19.7-27.4c18.3-16.5,42.6-24.5,66.8-27.4
	C290.4,57.3,296,49,304.1,44.1z"/>
<path class="st3" d="M322.2,56.1c6.9-4.3,15.6-4.9,23-1.5c8,3.6,14.9,9.4,19.8,16.7c1.4,2-1.1,4-1.9,5.8c-4.8-3.6-8-8.9-13-12.3
	c-3.2-2.2-6.5-4.7-10.4-5.4c-4.3-0.3-8.9-0.7-12.8,1.5c-7.3,3.5-12,10.3-17.1,16.2c-1.5-1.2-3.5-2.1-4.3-3.9
	C309.7,66.3,315.4,60.4,322.2,56.1z"/>
<path class="st3" d="M288.1,83.7c10.9-2.2,21.8-5.3,32.9-6.2c14.6,0,29.5-1.1,43.9,2c20.3,3.9,40.3,10.5,57.9,21.5
	c12.6,9,24.8,19.8,31.3,34.2c8.7,18.7,13,39.3,12.4,59.9c-0.1,3.5,1,7,1,10.5c0.1,19.5-0.1,39,0,58.5c1.6,20.2,7.8,39.8,16.7,57.9
	c7.9,17,17.3,33.2,24.5,50.5c3.8,10.4,8.1,20.8,10.1,31.8c-19,7.1-38.1,13.5-57.4,19.8c-34.3,11.1-69.6,19.5-105.6,22.6
	c-15,0-30,0.3-45-0.1c-21.6-1.8-42.9-5.8-64-10.9c-20.4-4.7-40.1-11.8-60-18.2c-8.4-2.6-16.4-6.5-24.9-9c-3-1.2-6.5-1.8-8.7-4.2
	c-0.3-4.3,0.1-8.7,1.3-12.9c4.9-18,15.3-33.7,22.6-50.7c2.3-5.7,6.2-10.7,9-16.2c8.5-16.4,13.9-34.4,18.3-52.4
	c1.6-5.9,0.7-12,0.9-18c0.3-7-1.4-13.9-1-21c0.4-25.5-1.7-51.4,3.6-76.5c2.2-11.3,6.4-22.1,12.3-32c4.1-6.8,10.1-12.1,15.8-17.5
	C250.8,94.5,269.6,88.3,288.1,83.7z"/>
<path class="st2" d="M343,104.8c8.3-0.3,15.9-3.7,23.3-7.1c2.5-1.2,3.4,3.6,1,4.3c-20.1,10.8-45.5,10-65.5-0.7l1.9-3.4
	C316.2,102.8,329.5,107.1,343,104.8z"/>
<path class="st2" d="M235.2,124.8c1.6-2.3,4.4-0.9,6.6-0.5c5.2,1.5,10.3,3,15.6,4c17,3.2,34.1,6.6,51.5,7.5
	c15.6,2.4,31.4,1.5,47.1,1.6c25.3-1.9,50.8-4.6,75.3-11.6c2-0.7,4,0.5,5.9,1.1c-4.4,4.3-10.8,4.5-16.4,6.1
	c-18.4,4.1-37.2,6.8-56,7.9c-9.5,1.2-19.2,0.7-28.8,0.7c-32,0.3-63.7-5.2-94.7-12.5C239,128.1,234.8,128.2,235.2,124.8z"/>
<path class="st2" d="M431.4,141.1c2.2-1.2,5.4,0.1,4.2,3c-5.4,2.1-11.1,2.8-16.7,4.1c-6.8,1.5-13.6,2.7-20.5,3.6
	c-11,1.6-21.9,3.4-33,3.9c-10,1.4-20.2,0.9-30.3,1c-11.8-0.1-23.7,0.5-35.4-1c-10.5-0.6-20.9-1.9-31.3-3.6
	c-10.9-1.7-22.2-2.5-32.7-6.2l-0.6-2.3c2.9-0.3,5.9-0.3,8.8,0.2c17.2,3.4,34.6,5.6,52,7.4c6.3,0.6,12.7,0,18.9,0.9
	c6.1,0.3,12.1,1.5,18.2,1.2c6.8,0.4,13.5-1.1,20.4-1.1c6.5-1,13.1-0.4,19.6-1.5C392.6,148.6,412.2,145.9,431.4,141.1z"/>
<path class="st2" d="M316.5,179.6c2.3-3.4,6.7-4,10.4-3.9c6,0.1,12.1-0.1,18.1,0c3.3,0,6.8,1.4,8.4,4.5c-2.1,4.6-5.6,9.3-3.8,14.7
	c3.1,3.1,7.3,4.4,10.9,6.7c5.5,3.6,10.8,7.4,16.3,11.1c-2.7,6.8-7,12.8-12,18.2c-2.7,3-6.5,4.5-10.2,5.8c-0.3-6.2,0.3-12.5-0.1-18.7
	c0.1-2.9-2.8-4.1-5.1-4.7c-0.2,35.8-0.2,71.6,0,107.5c2.1-0.2,4.4,0.1,6.4-0.7c4.3-2.8,6.4-7.8,10.3-10.9c2.2-1.8,5.2,1.3,4.3,3.7
	c-1.5,11.1-11.3,18.8-21,22.9c0.1,3.8-0.1,7.6,0.1,11.4l1.3,1.4c8.4,0.3,16.9,0.1,25.3,0c4,0.4,6.9-3.3,8.4-6.6c0.6-4,0.1-8,1-12
	c0.5-8.2-0.2-16.5,0.3-24.7c0.4-1.6,1-4.4,3.2-3.7c3.7,0.1,6.3,4,6.3,7.5c0.1,14.7-0.2,29.4-0.1,44c-0.3,2.3-0.3,5.2-2.4,6.7
	c-3.1,2.3-6.9,3.6-10.8,3.6c-20.4-0.1-40.8,0-61.1,0c-2.5,0.1-4.9-0.9-6.4-2.9c-0.2-5.2,7.2-7.2,7.1-12.4c0.1-4.5,0-9,0.1-13.5
	c-4.1-2.2-8.4-4-12.7-5.9c-5.3-2.5-10.3-5.5-14.9-8.9c-7.6-5.2-13.5-12.6-18-20.6c-5.5-11.6-8.7-24.2-9.4-37.1
	c1.1-10.8,3.4-21.8,9.3-31.2c4-7.6,10.3-13.6,16.8-19c4.7-3.7,9.6-7.3,15.4-9.3c4.1-1.7,8.7-2.6,12.4-5.2c1.8-1.1,1.1-3.4,1.1-5.1
	C321.3,187.5,316.2,184.4,316.5,179.6z"/>
<path class="st3" d="M315.3,215.2c2-1.8,4.7-1.9,7.2-2.3c0,34.4,0.3,68.8,0,103.2c-6.6-0.5-11.2-5.9-14.9-10.9
	c-7.2-11.8-10.8-25.4-10.4-39.2c0.1-5.9-0.3-11.8,0.5-17.6C300.4,236.1,305.1,223.3,315.3,215.2z"/>
<path class="st1" d="M566.5,234.5c1.1-1.2,2.8-1.5,4.3-2.1c1.4,3.7,2.1,7.5,2,11.5c0.4,19.9-2.2,40.8-12.8,58.2
	c-9.6,16-27,26.4-45.1,29.6c-6-0.8-12.3-1.8-17.4-5.4c-3.4-2.2-3.8-7.1-1.7-10.4c3.4-5.5,8.5-9.6,13.5-13.6
	c18.3-15.4,33.4-34.4,47-54C559.9,243.9,562.5,238.6,566.5,234.5z"/>
<path class="st1" d="M84.6,240.5c1.3-3,3.7-6.4,7.4-6.4c3.8,0.2,7.8,1.8,9.8,5.1c12.8,18,24.6,37.1,41.5,51.6
	c8.9,8.3,20.9,12.7,32.9,13.5c0.6,5.2,1.5,11-1.4,15.7c-2.3,3-5.8,4.8-9.1,6.4c-5.1,0.9-10.4,0.6-15.6,0.3
	c-5.8-1.5-11.1-4.8-17.2-5.5c-5.5-0.5-10.1-3.6-14.9-5.9c-7.6-3.8-14.4-8.9-20.1-15.2c-7.4-6.5-11.7-15.6-16.3-24.1
	C81,264,81.5,252,84.6,240.5z"/>
<path class="st1" d="M68.3,294.2c2.9-0.4,5.8-0.6,8.7-0.5c11.2,2.5,20.5,10.1,27,19.3c5,7.3,11.6,13.8,20.1,16.8
	c11.7,4.1,24.1,5.7,36.4,6.8c3.1,2.1,5.2,7.1,2.5,10.3c-2.5,3.5-5.3,6.9-7.1,10.9c-2.2,4.9-5.6,10-11.1,11.5c-2.2,0.6-4.2-0.9-6-1.9
	c-5.1-3.5-9.7-7.8-15.4-10.4c-4.5-2-8.3-5.9-13.5-5.9c-14.6-0.6-29.2,1-43.9,0.3c-4.8-0.5-8.9-3.6-12.5-6.7c-4.3-4-8.7-8.6-9.8-14.5
	c-1.5-6.9-1.5-14.7,2.2-21C50.5,300.9,59.2,295.5,68.3,294.2z"/>
<path class="st1" d="M576.4,299.1c4.9-1.6,9.7,1.3,13.8,3.7c7.8,4.2,14.8,10.5,18.2,18.9s3,17.6,0.7,26.1c-6.5,8.2-18,10.5-28,9.7
	c-5.7-0.2-11.3-2.7-17-1.6c-5.4,0.9-11,1-16.2,2.9c-6.5,3.9-12.2,9.1-17.6,14.4c-2.3,2.6-6.6,1.6-8.7-0.7s-3.3-5.4-5.1-7.9
	c-2.8-4.5-6.6-8.4-9.1-13c-1.5-2.4-1.1-6.3,1.7-7.6c7.5-4,16.5-3.5,24.3-6.8c10.8-4.3,18.8-13.2,25.9-22
	C564.2,309.2,568.8,302.2,576.4,299.1z"/>
<path class="st1" d="M71.6,359.3c2.5-0.2,4.9-0.6,7.4-0.6c9.6-0.1,19.2-1.4,28.8-0.4c7.8,2.2,15.4,5.3,22.4,9.4
	c6.7,4.2,13.5,9.5,15.5,17.5c2.6,7.1-1.7,14-4.1,20.5c-2.6,3.5-6.9,5.5-10.8,7.2c-6.6,0.6-13.4,0.8-19.6-1.8
	c-4.7-1.9-9.9-2.2-14.8-3.4c-4.1-1-8.4,0.2-12.4-1.2s-7.9-2.5-12.1-2.1c-2.8,0.2-5.8,0.7-8.5-0.6c-6.9-3.6-13-8.6-18-14.5
	c-4.1-5.1-5.4-12-4.4-18.3c1.9-6.7,8.6-10.8,15.2-12C61.3,357.7,66.4,359.7,71.6,359.3z"/>
<path class="st1" d="M597.3,361.2c5.4-0.8,11.5-0.2,15.6,3.9c2.9,2.8,3.7,7.1,3.4,11c0.2,5.4-3.5,9.8-6.7,13.8
	c-8.2,8.8-20,12.2-31.1,15.5c-7.6,2.8-15.8,3.7-23,7.3c-5,2.2-9.8,5.9-15.6,5.7c-3.4,0.2-7.8-0.8-8.8-4.5c0-3,1-6.1-0.1-9.1
	c-1-3.9-3.1-7.3-4.7-11c-1.6-3.8-0.6-8.1,2.5-10.8c4.9-4.9,9.5-10.5,16.3-12.8c10-4.3,21.2-2,31.7-4.4
	C583.9,364.9,590.4,362.2,597.3,361.2z"/>
<path class="st2" d="M491.5,395.2c2.6-1.3,5.7-1.1,8.1,0.6c-6,3.9-12.9,6-19.4,8.6c-11.8,4.9-24.1,8.1-36.3,11.7
	c-24.5,7-49.6,11.8-74.9,14.3c-16.6,1.8-33.3,1-50,1.2c-14,0.2-27.8-1.5-41.6-3.6c-24.3-3.5-48.2-9.1-71.4-16.9
	c-10-3-19.7-6.6-29.3-10.7c-1.9-1.2-6.9-2.1-5-5.1c3-0.2,6.1,0.5,8.8,1.8c23.6,10.2,48.5,16.9,73.6,22.5c14.4,2.9,29,4.9,43.5,6.6
	c5,0.5,10.1,0.2,15.1,1c10.1,0.6,20.2,0.3,30.3,0.4c14.2,0.2,28.3-2,42.4-3.5c20.8-2.9,41.4-7.3,61.6-13.3
	C462.2,406.6,477.1,401.5,491.5,395.2z"/>
<path class="st1" d="M589.9,413.9c5.9-0.8,11.9-1.3,17.8-2.1c0.2,3.7,0.7,7.4,0.3,11.1c-2.6,8.9-9,16.4-16.8,21.3
	c-12.2,7.6-26.2,11.1-39.7,15.4c-3.8,1.2-7.5,2.5-11.3,3.4c-0.5-4.2,2.7-6.9,5.3-9.5c7.3-7.8,11.4-17.9,17.5-26.4
	C569.4,418.8,579.9,415.2,589.9,413.9z"/>
<path class="st1" d="M64.9,422.9c-0.5-4.5,3-9.9,8-9.1c6.3,0.2,12.6-0.1,18.9,0.4c6.4,1.4,12.3,4.4,17.2,8.9
	c7.6,7.6,11.1,18,17.8,26.3c2.2,2.8,5.2,4.9,7.2,7.8c1.3,1.8,0.2,3.9-0.5,5.7c-6.8-1.7-13.3-4.5-20.2-5.7c-8.2-3.5-17.1-5.1-25-9.4
	c-4.8-2.9-10.2-4.7-14.5-8.5C68.8,435.1,65.6,429.3,64.9,422.9z"/>
<path class="st1" d="M115.6,418.8c5.2-2.3,11-1.5,16.5-1.5c9.8,0.1,19.3,3.6,27,9.7c6.3,5.1,11.3,11.5,16,18
	c4.8,6.2,10.5,12.7,10.3,21c-0.3,4.4-5,6.5-8.6,7.8c-11.1,0.7-21.7-3.9-31.1-9.4c-2.4-1.6-4.9-3-6.7-5.3c-4-5.3-7.3-11.1-10-17.2
	c-1.1-3-3.9-4.6-6-6.8c-2.8-2.8-4.1-6.6-5.9-10.1C116.1,423,115.6,420.9,115.6,418.8z"/>
<path class="st1" d="M536.3,424.3c4.2-0.7,8.6-0.5,12.7,0.6c2.8,0.3,2.5,3.8,1.7,5.7c-1.5,3.4-3.8,6.4-5.2,9.9
	c-4.1,9.1-9.7,17.4-16.6,24.6c-2,2.2-4.7,3.4-7.3,4.6c-6.4,3-13.3,4.9-20,7c-4.2,1.4-8.9,1-13.1-0.3c-3.5-1.2-5.9-4.5-5.9-8.3
	c0.3-15,9.9-28.2,24-33.3C516.8,431.8,526,426.3,536.3,424.3z"/>
<path class="st1" d="M188.9,439.2c32,6.9,64.2,13.4,96.9,15c5.5,1.1,11,0.5,16.5,1c3.3,6.9,7.3,13.4,12.1,19.3
	c5,6.3,11.4,11.3,17.1,16.9c0.9,3.4,0.3,7,0.2,10.4c-10.3,0.6-20.6-0.8-30.9-0.9c-22.7-1.7-45.5-4-67.8-9.1
	c-15.2-3.4-30.2-7.9-44.8-13.4c0.5-4.3,2.2-8.6,1.1-12.9c-1-4.9-2.2-9.7-2.6-14.6C187.4,447,188,443.1,188.9,439.2z"/>
<path class="st1" d="M471.4,440.2c3.2-0.8,6.4-1.4,9.6-1.9c1.1,5.4,2.8,10.9,1.5,16.4c-0.8,4.4-2,8.8-2.2,13.3
	c0.1,3.4,0.9,6.6,1.4,10c-17.7,7.2-36.2,11.8-54.8,15.9c-16.4,3.6-33.2,5.1-49.9,7c-12.9,0.8-25.7,2.2-38.7,1.9
	c-0.2-4.4-2.2-10.4,2.3-13.2c7.2-5.4,13.4-12,18.5-19.5c2.5-5.1,5.7-9.8,7.8-15.1c9.1,0.1,18.2-0.6,27.2-2.1
	c17.4-1,34.5-4.4,51.6-7.4C454.3,443.7,463,442.5,471.4,440.2z"/>
<path class="st2" d="M192.3,444.2c13.9,3.6,28.2,5.5,42.2,8.8c-13.8,3-27.4,6.5-41.2,9.2C191.6,456.3,190.5,450.2,192.3,444.2z"/>
<path class="st2" d="M434.9,452.7c14.3-3,28.7-5.5,42.9-8.8c2.1,6,0.7,12.4-1.2,18.2C462.7,459.1,448.9,455.8,434.9,452.7z"/>
<path class="st2" d="M391.6,458.7c10.5-1.8,21.1-2.3,31.5-4.4c17.7,3.3,35.2,7.9,52.9,11.1c0.5,3.3,0.8,6.7,1,10
	c-6.3,2.2-12.5,4.8-19,6.4c-3.5-0.8-7-2-10.2-3.6c-11.6-4.8-23.6-8.5-35.4-12.8C405.4,463.4,398.5,461.2,391.6,458.7z"/>
<path class="st2" d="M233.3,457.4c4.9-0.9,9.6-3.4,14.6-2.6c10.5,1.1,20.9,2.7,31.4,3.5c-22.4,8-44.9,15.8-67.5,23.5
	c-6.5-1.4-12.7-3.9-18.9-6.2c0.8-3.1,1.1-6.4,1.1-9.6C207.2,463.1,220.2,459.9,233.3,457.4z"/>
<path class="st1" d="M67.4,463.3c6-5,14.8-8.1,22.3-4.8c29.1,10.7,58.5,20.8,88.6,28.1c41.5,10.5,83.9,17.8,126.7,19.4
	c16.7,1.1,33.4,0.9,50.1,0.9c28.3-0.9,56.5-3.8,84.5-8.5c13-2.7,26.1-4.8,39.1-7.8c34.3-7.6,68-17.7,100.9-30.1
	c2.4-0.6,4.9-0.3,7.3-0.1c5.3,0.5,10.9,0.5,15.7,3c2.7,1.4,4.6,3.9,5.2,6.8c1.4,5.6,1.5,11.6,4,16.9c6.6,14.2,16.3,26.9,21.3,41.8
	c1,2.6,0.8,5.5,0.3,8.2c-8.6,1.7-15.5,7.3-23.3,10.9c-10.1,5.3-20.9,9-31.2,13.8c-9.6,4.9-19.9,8.3-29.9,12.2
	c-6.6,2.7-13.4,4.9-20.3,6.7c-43.7,13.8-88.8,23.3-134.5,27.1c-83.8,7.8-168.8-2.7-248.9-28c-32.6-10.9-65-22.8-95.8-38.1
	c-3.1-1.7-6.7-2.6-9.4-4.7c-2.3-6.6-3.1-14.1-0.8-20.8c2.4-7,9.3-11,12.5-17.4c1.8-3.4,0.9-7.4,2.1-10.9
	C56.4,478.8,60.2,469.7,67.4,463.3z"/>
<path class="st2" d="M243.2,475.2c14.6-5.5,29.4-10.4,44.1-15.9c4.1-0.7,8.3-0.2,12.4,0c1.2,2,2.3,4,3.4,6.1
	c-9.2,6.6-19.3,11.7-28.8,18c-5.3,2.6-9.7,7.2-15.4,8.7c-13.4-1.7-26.7-4.9-39.8-8.2C227,480.6,235.2,478.1,243.2,475.2z"/>
<path class="st3" d="M342,459.2c4.2-0.6,8.5-0.8,12.8-0.8c0.8,10-9,19-18.8,18.3c-6.6,0.5-13.1-2.5-17-7.9c-2.1-2.7-1.7-6.3-2.1-9.5
	C325.3,459,333.7,459.5,342,459.2z"/>
<path class="st2" d="M369.5,459.6c5.4-0.6,11.1-1.5,16.2,0.8c3.5,1.2,7,2.2,10.4,3.6c12.8,5.3,25.8,9.9,38.8,14.3
	c5.5,1.9,11.4,2.9,16.8,5.1c-13.6,4-27.4,7.1-41.3,9.2c-11.6-6.5-22.3-14.5-33.9-21c-3.3-1.9-6.6-3.9-9.8-6
	C367.5,463.6,368.5,461.6,369.5,459.6z"/>
<path class="st2" d="M560.4,474.3c5.5-2.3,11.1-4.6,16.7-6.8c2.3-0.2,3.7,1.9,5,3.4c-2.5,4.6-7.5,6.7-12.3,7.9
	c1.1,1.2,2.1,3,4.1,2.7c4.4-2.3,9.1-4.1,13.8-5.5c3.9,1.4,3.2,8-0.7,8.9c-3.9,1-7.7,2.4-11.4,4.1c0,1.7,0,3.3,0.1,5
	c5.4,0.7,10.1-2.3,15.3-2.8c3.1-0.4,6,1.5,7.1,4.4c2.4,6.4,5,13.3,4,20.2c-1,6-7.5,7.8-12.3,9.8c0.1,0.9,0.3,2.7,0.4,3.6
	c5.2,1.6,9.5-3.5,14.5-1.5c0,1.2-0.1,2.4-0.1,3.7c-3.7,1.7-7.8,2.9-10.9,5.7c-0.1,1.4-0.2,2.8-0.2,4.2c4.8-2.4,10.1-3.8,15.5-3.9
	c0.3,1.4,0.5,2.9,0.7,4.3c-8.3,3.9-17.2,6.7-25.5,10.7c-4.7,0.9-8.7,3.9-13.4,4.4c-3.5-0.2-3-4.9-0.5-6.2c3.8-1.6,7.8-3,11.1-5.5
	c-0.4-1.2-0.9-2.4-1.4-3.6c-4.9,2.4-10.1,4.5-15.7,3c-0.2-1.1-0.3-2.2-0.4-3.3c4.3-3.3,9.9-4.5,13.8-8.3c-5.1-2.5-10.2,1.2-15,2.5
	c-2.9-0.3-4.3-3-5-5.5c-0.7-3.2-4.2-4.9-4.5-8.3c-0.6-4.5-3.7-8-4.8-12.4c-1-1.8,0.3-3.8,1.6-4.9c3.8-2.7,8.8-2.2,12.7-4.3
	c2-1.2,0.5-3.5,0.4-5.2c-5.9,2.4-11.7,5.9-18.2,6c-3.8-1.2-7.4-3.2-11.3-4c-2.1,4.4-5.2,8.5-6.1,13.4c5.7-0.6,11.1-4.3,16.9-3.1
	c3.7,3.1-1.1,7.2-2.6,10.1c2.5,2.6,7.1,2.4,7.9,6.7c-1.4,2-2.9,4-4.3,5.9c0.8,1.7,1.6,3.4,2.5,5.1c1.9-0.1,3.8-0.3,5.8-0.5
	c-0.2,2.1,0.6,4.6-0.8,6.5c-2.1,2.7-1.4,6.3-0.4,9.3c1.9,3.1,5.9,0.4,8.8,0.4c0.8,2.5,2.3,6.2-0.8,7.7c-5.4,2.3-10.5,5.8-16.5,6.3
	c-3.2,0.2-5.7,3.1-9,2.6c-2.3-0.7-4.9-2.8-4.5-5.4c1.1-6.2-3.5-11.3-4.2-17.2c0-2.2-0.4-5.5,2.4-6.1c2-1.1,4.3,0.2,5.8,1.6
	c1.6,5.8,4.6,11,5.1,17.1c1.7-0.5,3.4-1,5.1-1.5c-2.6-7.9-6.4-15.4-8.4-23.5c-4,0.7-8.2,1.2-12-0.5c0-1.2,0-2.4,0.1-3.7
	c2.8-1.3,5.6-2.6,8.3-4c-0.1-1.5-0.3-3-0.4-4.5c-5.2-0.7-10.5,0.3-15.6-0.7c-2.1-0.1-3.2-2.8-2.2-4.5c3.5-7.7,8.1-14.9,11.4-22.7
	c1.1-2.7,3.6-5.5,6.8-4.7c3.2,0.9,5.8,3.1,8.6,4.7c6,1.3,11.8-1,17.2-3.3c1.7-0.7,1.7-2.6,1.9-4.2c-5.4-1.7-10.4,1.9-15.7,1.3
	c0.1-1.7-0.1-3.5,0.7-5C550.2,478.1,555,475.4,560.4,474.3z"/>
<path class="st2" d="M294.9,474.9c3.2-2.2,6.6-4.1,10-6c2,3.1,4.4,6,6.5,9c-5.9,4.3-12.1,8.1-17.9,12.7c-2.2,1.6-4.2,3.4-6.7,4.6
	c-7-0.2-14-0.9-20.8-2.3C275.2,486,285.4,481,294.9,474.9z"/>
<path class="st2" d="M358.9,478.2c1.7-3.4,3.6-6.6,5.8-9.6c9,5.6,17.8,11.4,27,16.7c4.5,2.5,8.8,5.2,12.9,8.2
	c-7.2,0.9-14.4,1.7-21.6,2.5C375.5,489.4,366.5,484.7,358.9,478.2z"/>
<path class="st2" d="M97.2,478.8c0.8-2.7,3.6-4.3,6.4-3.7c4.6,3.5,1.1,9.5,1.1,14.2c3.5,0.7,6.9-0.3,10.3-0.5
	c3.7,0.6,7.3,1.8,11.2,1.5c1.5-2.1,2.8-4.3,4.4-6.3c2.5,0.6,4.9,1.3,7.3,2.1c0.1,3.5,0.1,7,0,10.5c4.1,0.1,8.1,1.6,10.8,4.9
	c0.8,2.1,1.2,5.7-1.8,6.2c-2.1-0.2-4.2-0.5-6.3-1c0.4,3.6,1.2,7.1,1.9,10.6c0.4,1.6-0.3,3.3-1.8,4.1c-3,0.6-5.3-1.9-6.8-4.2
	c-2.6-4.4-2.9-9.7-5-14.4c-6.3,0.1-11.9,3.4-17.9,4.9c-2.3,0.6-5.8-1-5.1-3.8c0.5-3.9,4.8-4.5,7.6-6.2c-0.5-1.2-1.2-2.3-2-3.3
	c-2.2,1.8-4.2,3.9-6.8,5.1c-1.8,0.3-3.6-0.5-5.4-0.8c-2.7,4.9-6.1,10.2-5.7,16c1.4,4.1,4.6,8,3,12.6c-2.7,3.5-7,0.3-10-1
	c-2.6,5.5-3.6,11.9-7.3,16.8c-2.3,0.7-5.7,0.6-6.8-1.9c-1.6-2.9-0.3-6.3,1.1-9c2.9-5.5,5.6-11.1,7.8-16.9c0.9-3.8,0.1-7.7,0.2-11.6
	c2.2-0.9,4.4-1.8,6.6-2.6c0.4-2.4,3-5.5,0.5-7.4c-2.3-1.1-5.2-0.2-6.3,2.2c-0.2,0.3-0.3,0.7-0.4,1c-1,3.4-3,6.3-4.7,9.3
	c-0.1,5.5-3.7,9.7-5.2,14.8c-0.7,3.7-4.4,5.5-6.7,8.2c-2.6,3.1-7,1.6-10.1,0.3c1.1-4.5,7.2-4.9,7.8-9.6c1.1-3.6,4.2-6,5.5-9.6
	c3.7-6,5-12.9,7.8-19.3c1.3-3.2,0.1-7.5,3-9.9c4.7-1.5,9.1,1,13.6,2.1C95.8,483.9,96.1,480.6,97.2,478.8z"/>
<path class="st2" d="M292.8,495.7c7.2-4.8,13.9-10.3,21.1-15c4.3,4.7,9.1,9.1,14.1,13.1c0,0.9-0.1,2.8-0.1,3.8
	C316.2,496.8,304.5,497.3,292.8,495.7z"/>
<path class="st2" d="M356.4,481.1c6.9,5.3,14.2,10,21.1,15.3c-11.7,1-23.4,1.8-35.1,1.9c-0.1-0.9-0.3-2.6-0.4-3.5
	C347,490.5,351.8,485.9,356.4,481.1z"/>
<path class="st1" d="M578.3,506.8c0.3-5.6,7.2-9.8,12.2-7.4c1.2,1.5,2.3,3.9,0.6,5.5C587.5,508.1,582.5,508.5,578.3,506.8z"/>
<path class="st2" d="M439.6,505.7c9.2-1.8,18.4-3.5,27.6-5.1c2.6-0.7,4.5,1.8,4.9,4.1c-6.5,4.1-14.5,3.5-21.7,5.6
	c-0.1,0.8-0.2,2.3-0.3,3.1c8.4,1.9,17.1,0.4,25.3-1.8c3.5-1,7.2-0.4,10.8,0.2c0.7,6.2,4.1,11.9,3.6,18.1c-0.1,4-5.3,3.7-7.8,2.3
	c-3-3.8-2.5-9.5-6-12.8c-8.2,0.8-17.6-1.4-24.6,4c4.2,0.9,8.5,0.5,12.7,0.3c0.5,0.7,1.4,2,1.9,2.6c-3.9,2.2-8.4,2.5-12.4,4.2
	l-1.4,1.7c4.6,0.1,9.2-0.4,13.7,0.5c-0.1,1.4-0.2,2.8-0.3,4.2c-4.7,0.6-9.4,0.9-14.1,1.5c-5.7,1-11.5,0.4-17.1,2
	c-4,1.2-8.3,1.9-12.5,0.7c-0.1-1.3-0.3-2.6-0.4-3.8c6-1.6,13-0.3,18.1-4.7c-5.9-1.1-11.9,0.5-17.8,0.3c0.1-1.5,0.2-3,0.3-4.6
	c4.4-0.7,8.9-0.6,13.3-1.7c0.2-1.2,0.3-2.3,0.3-3.5c-3.8,0.4-7.2,2-11,2.4c-3.8,0.3-7.5,0.9-11.2,1.7c0.6,5,1.5,9.9,2.1,14.9
	c0.7,2.9-2.3,5.1-4.8,5.5c-2.4-0.4-4.6-1.6-6.1-3.4c-0.9-7.3-0.6-14.8-1.2-22.1c10.6-2,21.5-3.2,32.1-5.3c0-0.8-0.1-2.2-0.1-3
	c-6.9-2.2-13.9,0.8-20.8-0.3l-1.1-2.8c1.4-0.9,2.6-2.4,4.4-2.4C425.3,507.4,432.5,506.6,439.6,505.7z"/>
<path class="st2" d="M193.8,506.7c0.6-4,6.2-4.4,9-2.5c3.3,1.9,1.6,6,1.6,9c-0.1,6.1-2.9,12.3-0.6,18.3c2.6-2.1,5.9-4.6,5.4-8.4
	c0.3-5.8-0.9-12.8,3.9-17.1c1.9-2.8,5.6-3.6,8.5-1.7c0.3,0.2,0.5,0.4,0.7,0.6c4.9,4.4,11.8,2.4,17.6,3.5c3.9,0.8,8,0.6,11.7,2.1
	c4.3,3.5,3.1,9.7,2.2,14.4c-0.7,5.1-3.7,9.6-3.7,14.8c2.7,0.3,5.5,0.3,8.3,0.5c2.3,5.6,1.3,12-0.6,17.6c-0.6,2.3-3.4,2.5-5.3,3
	c-0.8-4.7,1.1-9.4,0.7-14.1c-3.8-0.6-7.5-1.5-11.2-2.7c-6.1-2.3-12.8-2-19.1-3.9c-9.6-3-19.8-2.9-29.4-5.7c-2.9-1-6-0.6-9-0.4
	c-2.1,3.9-2.8,8.3-4,12.6c-1,3-4.4,3.2-7,3.8c-0.4-2.8-0.8-5.5-0.9-8.3c1.3-3.2,2.8-6.3,4.2-9.5c0.7-2.7,1.2-5.4,3.1-7.6
	c2.4,0.5,4.9,1,7.3,1.4C189.4,519.8,191.8,513.3,193.8,506.7z"/>
<path class="st1" d="M557.6,514.9c0.2-6.3,7.5-8.7,12.8-8.1c-0.3,1.8,0.4,4.1-1.2,5.4C566,514.8,561.7,515.8,557.6,514.9z"/>
<path class="st1" d="M216.7,508c1.3,0.4,2.6,0.9,3.9,1.4c0.3,1.6,0.5,3.3,0.6,5c1.6,0.8,3.7,1.1,4.7,2.8c1.2,1.8,0.9,4.1,0.9,6.2
	c-2.6,0-5.2-0.2-7.8-0.3C218.1,518.1,216.7,513.2,216.7,508z"/>
<path class="st1" d="M584.9,513c1.8-2.8,5.5-2,8.3-2.2c-0.2,2.2,0.1,4.6-0.8,6.7c-1.8,1.6-4.3,2.7-6.8,2
	C584.1,517.7,583.1,514.9,584.9,513z"/>
<path class="st1" d="M228.3,514.2l1.8-2.9c5.1,0.1,10.4,0.6,15.2,2.5c0.8,1.4,0.6,3.1,0.6,4.7c-3.5,0.1-7-0.2-10.5,0.3
	c3.1,1.6,6.6,2.3,9.3,4.6c1.9,1.2,0.7,3.6,0.6,5.4c-4,0.3-8-0.7-11.9-1.2c0.1,0.8,0.2,2.3,0.3,3.1c2.3,0.2,4.5,0.6,6.8,1
	c2.1,0.5,2.8,2.8,3.9,4.5c-5,2.4-12.3,3.9-16.1-1.2c-2.5-1.9-3.7-5.2-2.9-8.3c1.8-0.8,3.6-1.5,5.5-2.2
	C230.3,520.9,229.5,517.5,228.3,514.2z"/>
<path class="st2" d="M105.5,515.5c1.3-2,4.9-2.5,6.1-0.1c1.8,2.8,2.4,7.6,6.4,8.1c2.6-1.1,4.8-3,7.1-4.4c2.5,0.7,5.8,2.2,4.5,5.3
	c-2.8,3.7-7.1,5.6-10.7,8.3c2,6.7,5.5,13,10.1,18.3c2.5,3.1,6.6,5.1,7.6,9.1c0.4,2.3-2.1,3.3-3.9,3.6c-4.6,0-9.5-1.3-12.6-4.8
	c-4.7-6.1-5-14.5-10.1-20.3c-4.7,1.3-8.7,4.3-13,6.5c-3.7,1.8-7.3,5-11.7,3.7c-2.8-1.4-2.1-5.7,0.2-7.2c3.8-3.1,9-3.2,12.8-6.1
	c3-2.4,7.2-3.9,9-7.5C107.7,523.6,104.5,519.8,105.5,515.5z"/>
<path class="st2" d="M326.2,516.4c1.9-2.1,5-2,7.4-1.1c2.3,0.8,5.4,1.3,6.2,4c0.8,3.5,0.3,7.1,0.4,10.6c5.3,0.3,10.6,0.2,15.9,0.2
	c4.4,0.4,8.7-3.8,13.1-1.2c3.8,1.9,2.7,6.7,2.5,10.1c-0.9,6.5-0.5,13.2-2.1,19.6c-2.5,7.1-8.5,12.1-13.7,17.3
	c-5.5-1.3-11.1-0.9-16.7-1.3c-0.4,8-0.6,16-1.5,23.9c-1.5,2-3.6,4.3-6.5,4.1c-2.4-0.4-4.2-2.3-5.3-4.4c-3.4-7.6-2.8-15.9-3.8-24
	c-9.6-1-19.3-1.5-29-2.5c0.5-12.9,0.6-25.8,0.3-38.7c-0.3-1.3,0.4-2.7,1.6-3.3c2.3-0.2,4.5,0.8,6.8,0.4c7.6-2.5,15.5,0.7,23.3,0.5
	C327.4,526,325.9,521.1,326.2,516.4z"/>
<path class="st1" d="M563.2,522.3c2.7-2.3,6.1-3.6,9.6-3.6c0.9,1.5,1.7,3,2.3,4.6c-3.8,2.1-7.8,4.9-12.4,3.3
	C562.8,525.2,562.9,523.7,563.2,522.3z"/>
<path class="st1" d="M214.4,525.1c1.9-0.7,2.7,2.5,0.7,2.8C213.2,528.6,212.4,525.5,214.4,525.1z"/>
<path class="st1" d="M219.6,529.7c1.5,0.9,3.4,1.5,4.1,3.3c-0.5,1.2-1.5,2.1-2.8,2.5c-1.8-0.5-2.8-2.2-4.2-3.3L219.6,529.7z"/>
<path class="st1" d="M305.6,536.8c6.1,0.5,12.4-0.4,18.4,1.3c4.4,2.3,2.4,8,2.8,11.9c0.7,5.3-1.2,10.2-2.8,15.1
	c-5.9-0.4-11.8-0.1-17.6-0.6c-2.6-0.2-3-3.4-3-5.4C304,551.7,305,544.2,305.6,536.8z"/>
<path class="st1" d="M339.5,538.6c4-1,8.3-0.2,12.5-0.4c3.8,0.2,7.7-0.5,11.5,0.3c1.8,1.7,0.8,4.2,0.8,6.4c0.1,2.6,1,5.2,0.5,7.8
	c-1.3,4-3.9,7.4-5.9,11.1c-0.8-0.7-1.7-1.5-2.5-2.2l2.1,2.5c-1.8,0.9-3.3,2.6-5.5,2.6c-4.6,0.1-9.2-0.2-13.8-0.8
	c-2.4-1.5-1.8-4.6-1.7-6.9C338.2,552.3,337.3,545.2,339.5,538.6z"/>
<path class="st2" d="M195.5,540c2.3-0.3,4.7-0.8,7.1-0.4c5.6,1.1,11.3,1.4,16.7,3.2c5.7-0.1,12.1,0.4,16.2,4.8
	c1.8,1.9,3.4,5.6,0.8,7.5c-3.5,1.3-7.8,1.2-10.4,4.2c-0.4,1.5-1.2,4.3,1.1,4.7c4.8,1.4,9.9,1.6,14.5,3.5c1,1.2,1.3,2.8,1.9,4.3
	c-1.4,0.7-2.9,1.4-4.4,1.8c-5.8,0.1-11.6-1-17-3.1c-1.7,4.2-2.1,8.8-3.3,13.1c-2.8,5.2-9.6,3-14.3,2.9c-5.7-2-11.8-3.5-16.8-7
	c-2.6-2.1-6.3-5.4-3.9-9c2.4-2.1,5.5-0.2,7.9,1.1c3.1,1.9,6.2,4,9.7,4.9c0.7-3.3,1.7-6.5,1.8-9.9c-7.5-1.6-15-3.2-22.4-5.2
	c-0.9-0.7-1.8-1.4-2.7-2.2c1.3-1.6,2.5-3.4,4.2-4.5c4.5-0.8,8.4,2.2,12.7,2.4c3.5,0.6,7,2.1,10.7,1.5c1.9-0.7,3.3-2.1,4.9-3
	c2.4-0.2,4.8,0.8,7.2,0.3c2.8-1.3,5.8-2.4,7.8-4.8c-4.2-1.6-8.8-2.1-13.1-3.7c-4.8-1.7-10-1.3-14.8-3
	C195.8,543.8,196.2,541.5,195.5,540z"/>
<path class="st2" d="M457.6,542.7c4.1-1.2,8.3-2.1,12.5-3c2.1-0.5,5,0.3,5.6,2.7c1.2,4,2.1,8,3.3,12c-4.7,3-10.5,2.8-15.9,3.7
	c-6.5,1.2-13.3,0.9-19.4,3.6c-3.6,1.6-7.5,1-11.3,1.7c-4.7,1.8-9.9,1.5-14.8,1.4c-0.3-3.7-1.5-7.2-2.1-10.9
	c-0.1-4.4,4.3-7.3,8.4-6.9C435,544.8,446.4,544.7,457.6,542.7z"/>
<path class="st1" d="M462.2,545.9c3.3-0.9,6.8-0.3,10,0.6c0,2.4,0.4,5.7-2.4,6.7c-2.6,0.3-5.2,0.2-7.7-0.1
	C460.3,551,460.4,547.9,462.2,545.9z"/>
<path class="st1" d="M442.1,550.5c1.1-1.4,3.2-1.2,4.8-1.5c3.3-0.6,5.9,3.9,3.7,6.5c-2,2.8-5.7,1.5-8.6,1.3
	C441.9,554.6,441.6,552.5,442.1,550.5z"/>
<path class="st1" d="M423.4,552c3.5-0.7,7.6-1.1,10.5,1.3c0.1,1.6-0.2,3.2-0.8,4.7c-3,1.9-6.6,1.8-9.9,0.8
	C423.2,556.5,423.3,554.3,423.4,552z"/>
<path class="st2" d="M458.6,563.2c8.6-0.8,17-3.2,25.6-3.2c0.1,1.2,0.6,2.3,0.4,3.5c-2.2,2.4-5.5,3-8.4,4.1c3,2,5.6,4.6,8.7,6.5
	c2.7,1.7,6.7-0.3,8.8,2.3c1.2,2.9-1.9,4.9-4.1,6.1c-4.4,1.3-9.2,1-13.2,3.6c-5.7,1.1-11.7,1.4-17.4,2.8c-3.8,1.2-8.1,0.6-11.4,3.3
	c-11.1,0.2-22.1,3.5-33.4,3.5c-2.2-0.1-4.2-3-2.1-4.7c4.4-4.5,7.7-10,12.1-14.5c-3-0.9-7.5-1.5-7.7-5.5c1.6-3.1,5.7-1.5,8.5-2.1
	C436.3,567.6,447.2,564.1,458.6,563.2z"/>
<path class="st1" d="M456.8,570.1c1.4,0,2.8,0.1,4.1,0.2c-0.5,4-1.6,8-3.2,11.7C456.4,578.2,456.1,574.1,456.8,570.1z"/>
<path class="st1" d="M440.9,573.5c1.5-0.1,3-0.2,4.5-0.2c1.2,2.9,1.9,6,2.2,9.1l-3.6,0.4C442.3,579.9,440.3,577,440.9,573.5z"/>
<path class="st1" d="M466.6,580.9c2.1-1.9,4-6.1,7.3-5C475.1,580.3,469.6,580.5,466.6,580.9z"/>
<path class="st1" d="M425.5,587.5c1.5-1.8,3-3.5,4.4-5.2c1.9,0.3,3.7,0.5,5.6,0.9l0.8,2.8C433,587.9,429.1,588.4,425.5,587.5z"/>
</svg>
