<?xml version="1.0" encoding="utf-8"?>
<!-- Generator: Adobe Illustrator 16.0.0, SVG Export Plug-In . SVG Version: 6.00 Build 0)  -->
<!DOCTYPE svg PUBLIC "-//W3C//DTD SVG 1.1//EN" "http://www.w3.org/Graphics/SVG/1.1/DTD/svg11.dtd">
<svg version="1.1" id="Layer_1" xmlns="http://www.w3.org/2000/svg" xmlns:xlink="http://www.w3.org/1999/xlink" x="0px" y="0px"
	 width="1920px" height="1080px" viewBox="0 0 1920 1080" enable-background="new 0 0 1920 1080" xml:space="preserve">
<path fill="#FFFFFF" d="M464.53,676.97c1.75-5.569,3.9-11.01,6.05-16.46c15.83-7.26,33.63-6.899,50.47-9.04
	c1.63-5.17,3.53-9.81,5.03-14.59c-17.39-14.2-40.87,0.7-59.55-12.16c0.73-3.71,2.19-11.109,2.91-14.819
	c21.6-1.95,49.69-0.98,61.17-23.591c12.61-26.189,10.89-56.879,9.35-85.339c-0.75-12.91-9.91-24.09-22.74-26.37
	c-21.3-4.51-43.74,1.54-64.34-8c1.72-6.88,3.72-13.24,5.85-20.01c16.84-2.13,33.7-2.95,50.46-2.05
	c16.64,1.3,27.67-24.07,13.91-34.52c-20.44-0.3-41.38,0.98-61.76,4.62c-8.32-1.31-10.05-9.71-12.92-15.86
	c20.59,1.23,43.1-0.87,58.79-16.04c-3.3-7.59-6.24-17.7-15.63-19.77c-25.03,1.74-50.17,3.89-74.92,6.16
	c-22.85-2.38-45.32,2.36-67.28,5.5c-5.06,4.97-6.52,12.38-9.04,19.01c20.33,9.02,44.72,0.95,64.07,14.46
	c-2.8,6.12-5.17,13.67-12.81,14.33c-24.35,2.4-50.29,4.29-72.53-8.38c-9.13-9.86-16.72-21.86-28.33-29.44
	c-11.72-7.18-25.16,0.83-32.92,10.19c-22.87,26.89-50.17,49.78-73.71,76.02c-6.1,5.51-5.11,17.63,3.12,20.65
	c19.03,10.35,41.36,13,61.17,22.29c-1.48,6.09-2.56,12.3-4.04,18.39c-12.49,2.19-25.25,3.86-38.01,5.53
	c-2.02,5.05-3.52,9.82-5.02,14.589c12.99,11.511,30.31,14.771,47.1,16.99c-2.18,34.721,3.56,69.29,4.02,103.971
	c-7.38-0.15-14.77-0.28-22.15-0.41c5.63-24.891,0.2-49.32,1.09-74.391c-4.21-7.439-11.74-15.479-21.07-13.609
	c-11.88-1.11-14.41,12.51-17.17,21.26c-4.59,24.34,7.33,50.37-4.8,73.65c-4.84,9.84,2.88,21.439,11.15,27.1
	c12.5,6.12,26.06-2.29,39.04,0.91c24.49,5.52,49.15-2.03,73.5-4.42c14.2-2.09,12.86-18.681,12.81-29.62
	c-11.54-3.63-30.82,2.109-34.5-12.601c-0.23-13.18,1.49-28.369,13.21-36.479c7.95-5.811,7.89-16.75,11.32-24.851
	c-8.21-1.71-16.02-3.289-23.7-5.27c-1.45-7.88-2.51-15.64-3.56-23.4c7.94-5.81,16.41-11.89,24.47-18.09
	c2.2-18.1-16.34-23.06-23.04-36.52c9.6-9.66,33.81-19.97,22.97-36.92c-21.57-12.02-47.67-4.06-71.09-8.8
	c9.71-18.36,27.17-30.79,41.02-45.67c14.51,8.06,26.32,20.52,39.94,30.04c25.97,7.73,53.41,1.06,79.88-1.11
	c-1.73,6.89,1.36,17.91-8.1,20.18c-18.13,3.48-37.39-4.76-55.88,1.23c-6.54,2.75-14.21,9.08-12.49,17.48
	c-1.12,18.88,6.83,36.67,3.59,55.32c-3.06,13.89,8.74,25.029,7.52,38.63c-0.35,10.82,1.85,23.31,13.01,28.13
	c20.71,0.83,45.62-7.51,62.77,8.81c-20.26,10.24-44.03,8-65.25,15.75c-0.98,4.5-1.96,9-2.54,13.631
	c20.4,12.96,43.7,11.109,66.19,7.689c0.49,5.4,0.98,10.8,1.07,16.07c-16.25,5.819-33.91,6.39-51.02,8
	c-11.57,2.04-19.43,20.109-5.76,25.28c19.31,3.89,38.97-3.04,58.79-0.75c38.01-5.53,76.9-5.54,114.79-10.671
	c0.95-5.819,2.03-12.029,2.59-17.979C509.45,674.48,486.62,673.42,464.53,676.97z M360.42,580c2.15-5.44,4.42-11.28,7.36-16.48
	c13.62-5.77,28.76-6.689,42.68-2.31c1.7,7.09,3.01,14.06,3.4,21.17C396.12,585.98,376.71,592.11,360.42,580z M404.27,530.86
	c-15.98,6.34-34.33,4.94-49.5-3.77c8.67-24.8,40.7-25.22,61.02-16.21C412.35,517.67,412.26,527.69,404.27,530.86z M504.98,506.58
	c2.9,7.47,4.28,18.39-4.49,22.63c-18.32,8.22-38.7,3.56-53.28-8.45C455.41,498.86,488.1,490.79,504.98,506.58z M465.71,553.67
	c10.66-8.89,24.37-1.08,35.76,1.62c-3.55,8.51-5.35,18.42-11.56,25.65c-9.16,4.109-20.47,5.359-29.54-0.551
	C456.65,571.36,456.18,558.97,465.71,553.67z"/>
<path fill="#FFFFFF" d="M762.287,355.128c39.07-0.95,78.069-1.489,116.998-1.619c11.177-1.055,17.232,10.553,17.265,20.284
	c-29.585,12.292-62.045,4.224-93.102,7.806c-0.969,3.218-2.434,9.312-3.402,12.533c33.186,13.693,69.987,13.623,105.227,10.33
	c15.088-1.657,29.872,3.403,44.249,8.389c-1.471,25.972,8.507,51.776,2.109,76.904c-3.217,16.37-24.375,11.492-33.668,3.989
	c-9.665-17.718-3.615-40.793-15.688-56.806c-34.258-2.459-71.343-18.086-103.897-0.802c16.633,6.642,34.58,8.009,51.981,10.131
	c1.565,3.227,4.351,9.201,5.987,12.018c-17.569,6.309-36.273,4.386-53.902,8.569l-6.947,6.008
	c18.84,3.634,38.093,4.802,55.954,11.653c-1.391,5.684-2.785,11.367-4.18,17.051c-19.731-0.827-39.256-2.889-58.993-3.716
	c-24.124,0.114-47.539-6.417-71.672-3.763c-17.28,2.127-35.439,1.991-51.863-5.885c0.502-5.41,0.591-10.894,1.021-15.896
	c25.778-2.37,53.633,7.878,77.674-6.631c-23.474-8.653-49.251-6.283-73.357-11.24c1.462-6.091,2.921-12.19,4.454-18.694
	c18.573,0.207,36.997,3.774,55.848,2.335c1.663-4.79,2.845-9.243,3.687-14.176c-15.897-1.018-30.988,3.176-46.886,2.158
	c-15.823-1.431-31.452-1.558-47.217-0.862c-1.04,20.969-0.774,41.734-1.814,62.703c0.845,12.408-13.026,19.346-23.577,19.237
	c-9.582-3.323-17.782-9.798-22.685-18.244c1.417-30.632,7.904-61.244,10.557-91.663c44.96-0.789,90.594,1.916,135.625,0.713
	c0.561-3.288,1.131-9.111,1.692-12.398c-26.815-13.876-57.683-6.453-85.268-15.808l-2.558-12.277
	c6.383-2.717,12.364-8.041,19.764-6.779C702.33,352.096,732.479,353.85,762.287,355.128z"/>
<path fill="#FFFFFF" d="M884.93,531.24c-0.79-10.28-12.15-15.6-21.13-15.021c-17.89,0.76-35.78,1.51-53.47,3.57
	c-47.43,0.37-94.34-7.2-141.5-5.94c-16.57-4.52-36.69,4.32-39.36,22.47c-0.12,15.621,2.36,30.85,1,46.26
	c20.07,3.85,41.22,8.72,61.8,4.62c16.1-0.21,31.71,4.99,47.63,0.93c26.96-6.82,54.69-0.82,82.25-1.2
	c22.82,0.09,46.51,4.971,67.93-4.06C887.95,565.59,887.05,548.53,884.93,531.24z M698.93,568.53c-13.66,5.7-28.39,2.77-41.25-3.65
	c1.62-9.46,3.57-18.43,5.59-27.81c14.88-0.42,32,0.81,42.24,12.7C704.8,556.42,702.45,562.78,698.93,568.53z M772.6,567.49
	c-10.19,10.1-24.48,2.17-36.26-0.681c1.14-9.119,1.37-17.949,4.83-25.819c5.5-4.99,13.99-2.69,20.78-2.8
	C775.93,538.03,783.46,558.35,772.6,567.49z M853.11,571.49c-10.9-0.59-21.51-2.82-31.57-5.811c-5.93-9.89-3.35-22.56,5.46-29.51
	c14.19-1.39,28.15,3.53,40.67,9.47C865.99,555.5,865.32,569.34,853.11,571.49z"/>
<path fill="#FFFFFF" d="M935.07,683.58c-6.81-12.16-24.65-6.74-34.55-15.62c-11.41-9.979-20.27-22.49-31.2-32.81
	c12.69-2.49,26.67-2.641,37.39-10.96c1.67-4.79,0.38-9.66,0.81-14.66c-35.34-6.03-71.54-2.05-107.44-4.79
	c-47.48-4.29-94.73,2.45-142.08-0.12c-11.93,0.5-27.65-8.95-36.4,2.67c-1.98,16.58,16.09,22.2,27.79,28
	c-21.23,15.41-38.65,35.7-59.89,51.11c-9.82,5.51-3.63,18.83,5.34,20.779c46.44,7.92,93.96,2.07,139.71,9.021
	c15.45-8.78,32.7-3.3,49.16-5.57c24.41-1.76,49.27,1.22,73.47,0.69c18.26-7.88,37.77-3.29,56.77-5.551
	C923.83,702.39,937.97,696.34,935.07,683.58z M647.03,684.43c7.42-6.35,14.78-12.279,21.72-18.29c7.6,2.57,14.85,4.65,22.38,7.62
	l1.33,12.07C677.57,691.33,661.19,690.65,647.03,684.43z M741.42,675.93l-15.08-0.88c-4.95-13.109-11.14-26.42-6.22-40.39
	c6.23,0.64,12.47,1.28,18.63,2.33C741.65,649.75,742.36,662.98,741.42,675.93z M783.21,681.37c-2.68-16.53-1.04-33.59,4.64-49.54
	c5.75,0.979,11.43,2.38,16.7,3.7C799.69,651.62,792.37,667.28,783.21,681.37z M820.55,683.08c9.96-6.33,20.71-22.26,33.5-15.43
	C855.9,686.57,833.16,683.54,820.55,683.08z"/>
<path fill="#FFFFFF" d="M1319.78,405.19c-18.341-10.84-36.271,6.67-54.61,5c-22.1,0-44.189,0.42-66.28-0.83
	c-0.42-14.59,1.66-29.6-1.67-44.19c-3.34-11.26-16.26-13.34-25.85-16.68c-10-3.75-22.931-4.17-30.851,4.59
	c-1.25,19.59,5,40.02-4.58,59.19c-32.52,0.84-65.449-12.5-97.14-2.08c-9.59,1.67-18.76-2.5-28.34-1.67
	c-5.01,2.5-7.93,8.34-6.67,13.76c1.25,53.78,0.83,107.56-1.26,161.331c40.439,4.17,80.88,6.26,120.899,10.42
	c4.17,33.77,1.67,68.37,15.84,100.06c4.591,8.75,12.091,16.67,22.101,18.34c12.09,0.84,20.84-8.75,27.09-17.09
	c3.76-32.939,4.59-66.29,6.26-99.64c23.341,1.67,46.69,0,69.62,5.42c21.67-21.67,46.69-42.521,57.11-72.12
	c6.67-26.68,5-54.61,8.75-81.71C1331.04,433.12,1335.62,413.11,1319.78,405.19z M1131.35,556.1c-24.59-1.67-49.189-0.42-73.369-2.5
	c-10.841-0.84-12.511-14.18-12.511-22.52c2.5-30.84,6.67-62.11,9.17-92.96c25.431,2.09,51.7-1.67,76.71,5.42
	c18.34,9.59,10.011,33.35,11.67,49.61C1145.939,515.24,1138.02,535.67,1131.35,556.1z M1301.439,501.38
	c-5.42,16.68-16.26,30.85-24.6,46.28c-3.33-2.92-7.08-6.26-10.42-9.18l8.76,10.43c-7.51,3.75-13.76,10.83-22.93,10.83
	c-19.18,0.42-38.36-0.83-57.53-3.33c-10.01-6.26-7.51-19.18-7.09-28.77c2.92-27.93-0.84-57.52,8.34-85.04
	c16.67-4.17,34.601-0.83,52.11-1.67c15.84,0.84,32.1-2.08,47.939,1.25c7.5,7.09,3.33,17.51,3.33,26.68
	C1299.77,479.7,1303.52,490.54,1301.439,501.38z"/>
<path fill="#FFFFFF" d="M1725.88,475.98c-11.59,1.59-23.01,3.99-34.29,5.09c-4.47-21.22,3.91-42.15,2.38-63.55
	c-0.359-19.95-0.79-46.27-21.34-56.86c-16.38-2.94-32.93,1.4-49.53,1.49c-24.609,0.49-51.039,14.58-74.81,0.83
	c-0.979-0.64-1.97-1.28-3.37-1.84c-13.46-5.26-27.859,1.18-33.21,14.24c-15.89,21.66-4.979,49.18-1.22,73.1
	c5.3,15.07-6.01,28.11-14.82,38.91c-14.53-22.5-8.439-50.2-13.27-75.17c-2.57-12.24,0.84-30.42-14.25-35.34
	c-13.061-5.35-35.561,1.1-34.57,17.93c-2.49,28.64-6.7,57.22-10,86.03c-10.141,0.43-20.77,0.54-30.98,0.56
	c-5.869,10.61-5.59,22.05-6.119,33.67c-2.961,14.25-6.42,28.18-8.98,42.35c2.82,11.34,6.77,22.021,10.8,33.09
	c10.09-4.68,23.79-8.41,25.29-21.51c1.21-18.57,0.28-37.12,5.5-54.84c12.07-3.39,24.37-7.68,37.061-6.1
	c41.56,3.18,83.09-5.99,124.83-2c27.33,2.34,54.399-4.64,81.26-0.49c16.13,1.71,31.99,2.21,48.01,1.39
	c5.67,18.83,1.96,39.64,9.26,58.12c7.32-3.67,18.57-6.89,19.04-16.79C1741.49,523.81,1740.07,496.85,1725.88,475.98z M1545.23,382.8
	c2.59,6.27,4.869,13.04,6.739,19.88c7.21,1.89,16.04,1.31,21.58,7.39c6.44,6.31,7.19,15.95,8.99,24.52
	c-10.601,2.23-21.38,3.65-32.07,5.47c-7.97-19.62-17.89-38.41-22.35-59.62C1533.76,380.96,1539.49,381.88,1545.23,382.8z
	 M1538.68,463c-7.149,4.48-13.08-7.48-5.26-10.83C1540.57,447.69,1546.58,460.05,1538.68,463z M1568.87,489.02
	c-7.771-0.5-13.31-6.57-19.97-9.86l9.68-12.69c6.89,2.39,15.16,3.2,19.56,9.94C1577.13,481.74,1573.83,486.27,1568.87,489.02z
	 M1598.62,480.62c-11.82-5.6-19.56-18.03-18.95-31.37c6.65-4.81,13.391-9.21,20.54-13.7c-5.54-14.17-11.72-27.35-19.45-39.78
	l4.851-13.38c20.89-3.97,42.939-6.48,64.149-2.85c4.471,5.02,5.12,12.13,6.49,18.65c-14.189,3.42-28.73,5.2-42.58,10.25
	c14.03,3.86,28.9,3.71,41.891,10.77c8.789,3.26,5.949,14.09,7.09,21.52c-16.061,4.66-33.24,4.01-49.57,5.32
	c1.09,3.18,2.79,9.21,3.88,12.39c9.55-1.16,18.87-1.42,28.601-1.76c9,0.24,13.829,9.02,19.77,15.01
	C1647,485.77,1618.51,498.16,1598.62,480.62z"/>
<path fill="#FFFFFF" d="M1469.115,529.191c9.128-3.199,18.49-7.3,28.623-7.731c23.786-0.322,47.299-3.995,70.874-1.29
	c23.166-5.304,49.703-8.763,70.208,5.666c8.975,6.206,18.678,19.923,9.707,29.908c-13.162,8.312-30.791,11.596-38.819,26.067
	c-0.345,6.462-1.202,18.57,8.521,18.228c20.787,1.589,41.765-1.977,62.16,1.825c5.11,4.032,7.706,10.303,11.443,15.906
	c-5.11,4.059-10.628,8.203-16.402,11.124c-23.574,5.388-48.18,5.882-72.012,1.956c-3.329,18.592-1.007,37.7-2.213,56.273
	c-6.953,23.618-36.582,20.484-55.842,24.114c-24.968-3.264-51.142-4.144-74.544-14.125c-12.413-6.332-30.343-16.619-23.64-33.363
	c7.986-10.631,22.263-5.544,33.171-2.301c14.275,5.09,28.726,10.991,43.778,11.658c0.021-14.065,1.35-27.976-1.163-41.933
	c-31.968-0.085-63.939-0.171-95.844-1.973c-4.273-2.082-8.545-4.165-12.902-6.658c3.929-7.642,7.275-16.016,13.269-21.965
	c17.67-7.127,36.155,1.761,53.87-1.116c14.789-0.559,30.358,2.553,44.936-3.069c7.148-4.489,11.659-11.401,17.413-16.446
	c9.62-2.881,20.27-0.859,29.63-4.963c10.306-7.709,21.598-14.771,27.694-26.279c-18.505-2.918-37.702-1.011-56.618-3.844
	c-21.043-2.812-41.912,3.288-62.951,0.476C1473.604,544.437,1473.26,534.709,1469.115,529.191z"/>
</svg>
