<?xml version="1.0" encoding="utf-8"?>
<!-- Generator: Adobe Illustrator 16.0.0, SVG Export Plug-In . SVG Version: 6.00 Build 0)  -->
<!DOCTYPE svg PUBLIC "-//W3C//DTD SVG 1.1//EN" "http://www.w3.org/Graphics/SVG/1.1/DTD/svg11.dtd">
<svg version="1.1" id="Layer_1" xmlns="http://www.w3.org/2000/svg" xmlns:xlink="http://www.w3.org/1999/xlink" x="0px" y="0px"
	 width="1800px" height="900px" viewBox="0 0 1800 900" enable-background="new 0 0 1800 900" xml:space="preserve">
<g>
	
		<linearGradient id="SVGID_1_" gradientUnits="userSpaceOnUse" x1="1912.1316" y1="397.3757" x2="2502.9089" y2="397.3757" gradientTransform="matrix(-1 0 0 -1 2658.2085 859.4009)">
		<stop  offset="0" style="stop-color:#EE3724"/>
		<stop  offset="0.1129" style="stop-color:#F15523"/>
		<stop  offset="0.2632" style="stop-color:#F36F21"/>
		<stop  offset="0.4214" style="stop-color:#F58020"/>
		<stop  offset="0.589" style="stop-color:#F68C1F"/>
		<stop  offset="0.7721" style="stop-color:#F7931E"/>
		<stop  offset="1" style="stop-color:#F8951D"/>
	</linearGradient>
	<path fill="url(#SVGID_1_)" d="M157.499,285.531c-1.448,13.545-2.199,27.305-2.199,41.224c0,65.201,16.388,126.54,45.3,180.153
		c0.912,1.689,1.85,3.379,2.789,5.069c0.806,1.448,1.637,2.925,2.469,4.344c1.287,2.254,2.601,4.48,3.941,6.682
		c0.778,1.313,1.583,2.601,2.388,3.915c0.857,1.396,1.743,2.814,2.654,4.209c0.778,1.235,1.557,2.439,2.36,3.677
		c0.537,0.833,1.1,1.662,1.636,2.466c0.912,1.368,1.852,2.764,2.789,4.131c2.951,4.318,5.982,8.558,9.146,12.74
		c1.099,1.502,2.226,2.977,3.379,4.479c6.84,8.905,14.107,17.516,21.725,25.748c1.207,1.343,2.44,2.656,3.674,3.943
		c1.314,1.396,2.656,2.79,3.997,4.158c7.59,7.775,15.502,15.23,23.764,22.313c1.18,1.045,2.359,2.064,3.566,3.058
		c8.771,7.402,17.917,14.43,27.357,21.001c0.188,0.136,0.349,0.27,0.536,0.4h0.055c1.367,0.967,2.762,1.935,4.157,2.872
		c21.778,14.696,45.166,27.224,69.841,37.226c44.066,17.864,92.264,27.708,142.739,27.708c65.496,0,127.13-16.55,180.932-45.729
		c-30.896,15.046-65.575,23.467-102.24,23.467c-57.559,0-110.26-20.785-151.026-55.276
		c148.72-39.293,261.715-166.396,280.194-322.49c1.744-6.866,2.655-14.082,2.655-21.484c0-1.903-0.054-3.809-0.187-5.686
		c-0.027-0.617-0.082-1.234-0.135-1.851c-0.054,0.616-0.081,1.261-0.081,1.877c-59.166,4.104-114.577,21.75-163.178,49.859
		c-7.59-12.981-11.935-28.081-11.935-44.201c0-27.731,12.848-52.461,32.938-68.525c-97.789,4.425-179.94,68.902-210.489,157.383
		c-34.305-86.604-118.815-147.862-217.65-147.862c-2.252,0-4.506,0.027-6.731,0.107"/>
	
		<linearGradient id="SVGID_2_" gradientUnits="userSpaceOnUse" x1="1896.8162" y1="212.4285" x2="1941.3914" y2="212.4285" gradientTransform="matrix(-1 0 0 -1 2658.2085 859.4009)">
		<stop  offset="0" style="stop-color:#EE3724"/>
		<stop  offset="0.1129" style="stop-color:#F15523"/>
		<stop  offset="0.2632" style="stop-color:#F36F21"/>
		<stop  offset="0.4214" style="stop-color:#F58020"/>
		<stop  offset="0.589" style="stop-color:#F68C1F"/>
		<stop  offset="0.7721" style="stop-color:#F7931E"/>
		<stop  offset="1" style="stop-color:#F8951D"/>
	</linearGradient>
	<path fill="url(#SVGID_2_)" d="M761.392,632.771c-14.133,10.459-29.02,19.953-44.575,28.403
		C732.775,653.394,747.715,643.846,761.392,632.771z"/>
	
		<linearGradient id="SVGID_3_" gradientUnits="userSpaceOnUse" x1="1912.1306" y1="365.9377" x2="2265.3845" y2="365.9377" gradientTransform="matrix(-1 0 0 -1 2658.2085 859.4009)">
		<stop  offset="0" style="stop-color:#EE3724"/>
		<stop  offset="0.1129" style="stop-color:#F15523"/>
		<stop  offset="0.2632" style="stop-color:#F36F21"/>
		<stop  offset="0.4214" style="stop-color:#F58020"/>
		<stop  offset="0.589" style="stop-color:#F68C1F"/>
		<stop  offset="0.7721" style="stop-color:#F7931E"/>
		<stop  offset="1" style="stop-color:#F8951D"/>
	</linearGradient>
	<path fill="url(#SVGID_3_)" d="M406.019,557.645c26.82-97.063,91.191-178.57,176.479-227.894
		c48.601-28.107,104.012-45.756,163.178-49.859c0.054-0.026,0.134-0.026,0.216-0.026c0.133,1.877,0.187,3.78,0.187,5.685
		c0,7.404-0.911,14.618-2.655,21.484c-18.479,156.096-131.475,283.198-280.194,322.49c40.767,34.491,93.469,55.277,151.026,55.277
		c36.665,0,71.343-8.424,102.24-23.47c-53.802,29.182-115.436,45.729-180.932,45.729c-50.477,0-98.673-9.842-142.739-27.705"/>
	
		<linearGradient id="SVGID_4_" gradientUnits="userSpaceOnUse" x1="1912.533" y1="431.2795" x2="2634.8933" y2="431.2795" gradientTransform="matrix(-1 0 0 -1 2658.2085 859.4009)">
		<stop  offset="0" style="stop-color:#EE3724"/>
		<stop  offset="0.1129" style="stop-color:#F15523"/>
		<stop  offset="0.2632" style="stop-color:#F36F21"/>
		<stop  offset="0.4214" style="stop-color:#F58020"/>
		<stop  offset="0.589" style="stop-color:#F68C1F"/>
		<stop  offset="0.7721" style="stop-color:#F7931E"/>
		<stop  offset="1" style="stop-color:#F8951D"/>
	</linearGradient>
	<path fill="url(#SVGID_4_)" d="M463.228,629.505c148.72-39.293,261.715-166.396,280.194-322.49
		c1.047-8.958,1.797-18.023,2.253-27.144c-59.166,4.104-114.577,21.75-163.178,49.859c-7.59-12.982-11.935-28.081-11.935-44.201
		c0-27.731,12.848-52.461,32.937-68.525c-97.788,4.425-179.939,68.902-210.488,157.383
		c-34.305-86.604-118.815-147.862-217.65-147.862c-2.252,0-4.506,0.027-6.731,0.107c-55.413,1.556-105.996,22.396-145.314,56.002
		c19.391-9.522,41.223-14.859,64.29-14.859c25.317,0,49.135,6.438,69.895,17.755c-1.448,13.545-2.199,27.305-2.199,41.224
		c0,65.201,16.388,126.54,45.3,180.153c0.912,1.689,1.85,3.379,2.789,5.069c0.806,1.448,1.637,2.925,2.469,4.344
		c1.287,2.254,2.601,4.48,3.941,6.682c0.778,1.313,1.583,2.601,2.388,3.915c0.857,1.396,1.743,2.814,2.654,4.209
		c0.778,1.235,1.557,2.439,2.36,3.677c0.537,0.833,1.1,1.662,1.636,2.466c0.912,1.368,1.852,2.764,2.789,4.131
		c2.951,4.318,5.982,8.557,9.146,12.74c1.099,1.502,2.226,2.977,3.379,4.479c6.84,8.905,14.107,17.516,21.725,25.748
		c1.207,1.342,2.44,2.656,3.674,3.943c1.314,1.396,2.656,2.79,3.997,4.158c7.59,7.775,15.502,15.23,23.764,22.313
		c1.18,1.045,2.359,2.064,3.566,3.058c8.771,7.402,17.917,14.43,27.357,21.001c0.188,0.136,0.349,0.27,0.536,0.4h0.374"/>
	
		<linearGradient id="SVGID_5_" gradientUnits="userSpaceOnUse" x1="1896.8162" y1="212.4285" x2="1941.3914" y2="212.4285" gradientTransform="matrix(-1 0 0 -1 2658.2085 859.4009)">
		<stop  offset="0" style="stop-color:#EE3724"/>
		<stop  offset="0.1129" style="stop-color:#F15523"/>
		<stop  offset="0.2632" style="stop-color:#F36F21"/>
		<stop  offset="0.4214" style="stop-color:#F58020"/>
		<stop  offset="0.589" style="stop-color:#F68C1F"/>
		<stop  offset="0.7721" style="stop-color:#F7931E"/>
		<stop  offset="1" style="stop-color:#F8951D"/>
	</linearGradient>
	<path fill="url(#SVGID_5_)" d="M761.392,632.771c-14.133,10.459-29.02,19.953-44.575,28.403
		C732.775,653.394,747.715,643.846,761.392,632.771z"/>
	
		<linearGradient id="SVGID_6_" gradientUnits="userSpaceOnUse" x1="1911.6726" y1="436.1267" x2="2277.5046" y2="436.1267" gradientTransform="matrix(-1 0 0 -1 2658.2085 859.4009)">
		<stop  offset="0" style="stop-color:#EE3724"/>
		<stop  offset="0.1129" style="stop-color:#F15523"/>
		<stop  offset="0.2632" style="stop-color:#F36F21"/>
		<stop  offset="0.4214" style="stop-color:#F58020"/>
		<stop  offset="0.589" style="stop-color:#F68C1F"/>
		<stop  offset="0.7721" style="stop-color:#F7931E"/>
		<stop  offset="1" style="stop-color:#F8951D"/>
	</linearGradient>
	<path fill="url(#SVGID_6_)" d="M393.47,374.434c0,0,0,0,0-0.027c30.549-88.48,112.7-152.958,210.488-157.383
		c-20.089,16.065-32.937,40.794-32.937,68.526c0,16.121,4.345,31.22,11.935,44.2c48.6-28.106,104.013-45.754,163.178-49.858
		c0-0.617,0.026-1.261,0.08-1.877c0.055,0.617,0.106,1.233,0.135,1.851c0.134,1.878,0.187,3.781,0.187,5.686
		c0,7.404-0.91,14.618-2.654,21.484C725.402,463.13,612.407,590.233,463.686,629.525c-23.495-19.847-43.021-44.283-57.208-71.881
		c-3.459-6.731-6.599-13.623-9.414-20.704c-10.568-26.66-16.36-55.734-16.36-86.147C380.703,424.052,385.182,398.358,393.47,374.434
		z"/>
	
		<linearGradient id="SVGID_7_" gradientUnits="userSpaceOnUse" x1="2264.738" y1="425.0833" x2="2634.4343" y2="425.0833" gradientTransform="matrix(-1 0 0 -1 2658.2085 859.4009)">
		<stop  offset="0" style="stop-color:#EE3724"/>
		<stop  offset="0.1129" style="stop-color:#F15523"/>
		<stop  offset="0.2632" style="stop-color:#F36F21"/>
		<stop  offset="0.4214" style="stop-color:#F58020"/>
		<stop  offset="0.589" style="stop-color:#F68C1F"/>
		<stop  offset="0.7721" style="stop-color:#F7931E"/>
		<stop  offset="1" style="stop-color:#F8951D"/>
	</linearGradient>
	<path fill="url(#SVGID_7_)" d="M393.47,374.462c0,0,0-0.048,0-0.075c-34.305-86.604-118.815-147.862-217.65-147.862
		c-2.252,0-4.505,0.027-6.731,0.107c-55.411,1.556-105.996,22.396-145.314,56.002c19.391-9.522,41.224-14.859,64.29-14.859
		c25.317,0,49.135,6.438,69.894,17.755c-1.447,13.545-2.199,27.305-2.199,41.224c0,65.201,16.389,126.54,45.3,180.153
		c0.913,1.689,1.851,3.379,2.789,5.069c0.806,1.448,1.637,2.925,2.469,4.344c1.287,2.254,2.601,4.48,3.941,6.682
		c0.778,1.313,1.583,2.601,2.388,3.915c0.857,1.396,1.743,2.814,2.655,4.209c0.777,1.235,1.556,2.439,2.359,3.677
		c0.537,0.833,1.101,1.662,1.636,2.466c0.912,1.368,1.852,2.764,2.79,4.131c2.95,4.318,5.979,8.557,9.146,12.74
		c1.099,1.502,2.226,2.977,3.379,4.479c6.84,8.905,14.108,17.516,21.725,25.748c1.207,1.342,2.441,2.656,3.674,3.943
		c1.314,1.396,2.655,2.79,3.997,4.158c7.591,7.775,15.502,15.23,23.764,22.313c1.18,1.045,2.359,2.064,3.565,3.058
		c8.771,7.402,17.917,14.43,27.357,21.001c0.188,0.136,0.349,0.27,0.537,0.4h0.053c1.368,0.967,2.762,1.935,4.157,2.872"/>
	
		<linearGradient id="SVGID_8_" gradientUnits="userSpaceOnUse" x1="2457.6082" y1="463.1624" x2="2502.9089" y2="463.1624" gradientTransform="matrix(-1 0 0 -1 2658.2085 859.4009)">
		<stop  offset="0" style="stop-color:#EE3724"/>
		<stop  offset="0.1129" style="stop-color:#F15523"/>
		<stop  offset="0.2632" style="stop-color:#F36F21"/>
		<stop  offset="0.4214" style="stop-color:#F58020"/>
		<stop  offset="0.589" style="stop-color:#F68C1F"/>
		<stop  offset="0.7721" style="stop-color:#F7931E"/>
		<stop  offset="1" style="stop-color:#F8951D"/>
	</linearGradient>
	<path fill="url(#SVGID_8_)" d="M200.6,506.929C171.688,453.314,155.3,391.975,155.3,326.773c0-13.92,0.75-27.679,2.199-41.224"/>
</g>
<g>
	
		<line fill="none" stroke="#010101" stroke-width="12" stroke-miterlimit="10" x1="1058.753" y1="383.307" x2="1170.628" y2="383.307"/>
	<path fill="none" stroke="#010101" stroke-width="12" stroke-miterlimit="10" d="M1058.753,457.889"/>
	
		<line fill="none" stroke="#010101" stroke-width="12" stroke-miterlimit="10" x1="1170.628" y1="532.471" x2="1058.753" y2="532.471"/>
	
		<line fill="none" stroke="#010101" stroke-width="12" stroke-miterlimit="10" x1="1170.628" y1="457.889" x2="1058.753" y2="457.889"/>
</g>
<g>
	
		<line fill="none" stroke="#010101" stroke-width="12" stroke-miterlimit="10" x1="1357.086" y1="383.307" x2="1468.961" y2="383.307"/>
	<path fill="none" stroke="#010101" stroke-width="12" stroke-miterlimit="10" d="M1357.086,457.889"/>
	
		<line fill="none" stroke="#010101" stroke-width="12" stroke-miterlimit="10" x1="1468.961" y1="532.471" x2="1357.086" y2="532.471"/>
	
		<line fill="none" stroke="#010101" stroke-width="12" stroke-miterlimit="10" x1="1468.961" y1="457.889" x2="1357.086" y2="457.889"/>
</g>
<polyline fill="none" stroke="#010101" stroke-width="12" stroke-miterlimit="10" points="1506.253,540.758 1562.189,391.594 
	1618.127,540.758 "/>
<polyline fill="none" stroke="#010101" stroke-width="12" stroke-miterlimit="10" points="1207.92,534.542 1207.92,385.379 
	1319.795,534.542 1319.795,385.379 "/>
<polyline fill="none" stroke="#010101" stroke-width="12" stroke-miterlimit="10" points="1655.419,534.542 1655.419,385.379 
	1767.296,534.542 1767.296,385.379 "/>
<line fill="none" stroke="#010101" stroke-width="12" stroke-miterlimit="10" x1="964.452" y1="463.901" x2="1020.389" y2="463.901"/>
<path fill="none" stroke="#010101" stroke-width="12" stroke-miterlimit="10" d="M996.208,401.953
	c-13.157-11.601-30.413-18.646-49.33-18.646c-41.187,0-74.583,33.397-74.583,74.583c0,41.193,33.396,74.584,74.583,74.584
	c41.188,0,74.583-33.391,74.583-74.584"/>
<path fill="none" stroke="#010101" stroke-width="12" stroke-miterlimit="10" d="M965.523,401.953L965.523,401.953L965.523,401.953z
	"/>
</svg>
