<?xml version="1.0" encoding="utf-8"?>
<!-- Generator: Adobe Illustrator 16.0.0, SVG Export Plug-In . SVG Version: 6.00 Build 0)  -->
<!DOCTYPE svg PUBLIC "-//W3C//DTD SVG 1.1//EN" "http://www.w3.org/Graphics/SVG/1.1/DTD/svg11.dtd">
<svg version="1.1" id="Layer_1" xmlns="http://www.w3.org/2000/svg" xmlns:xlink="http://www.w3.org/1999/xlink" x="0px" y="0px"
	 width="450px" height="300px" viewBox="0 0 450 300" enable-background="new 0 0 450 300" xml:space="preserve">
<g>
	<g>
		
			<line fill="none" stroke="#010101" stroke-width="7" stroke-miterlimit="10" x1="98.341" y1="114.739" x2="152.341" y2="114.739"/>
		<path fill="none" stroke="#010101" stroke-width="7" stroke-miterlimit="10" d="M98.341,150.738"/>
		
			<line fill="none" stroke="#010101" stroke-width="7" stroke-miterlimit="10" x1="152.341" y1="186.738" x2="98.341" y2="186.738"/>
		
			<line fill="none" stroke="#010101" stroke-width="7" stroke-miterlimit="10" x1="152.341" y1="150.738" x2="98.341" y2="150.738"/>
	</g>
	<g>
		
			<line fill="none" stroke="#010101" stroke-width="7" stroke-miterlimit="10" x1="242.341" y1="114.739" x2="296.341" y2="114.739"/>
		<path fill="none" stroke="#010101" stroke-width="7" stroke-miterlimit="10" d="M242.341,150.738"/>
		
			<line fill="none" stroke="#010101" stroke-width="7" stroke-miterlimit="10" x1="296.341" y1="186.738" x2="242.341" y2="186.738"/>
		
			<line fill="none" stroke="#010101" stroke-width="7" stroke-miterlimit="10" x1="296.341" y1="150.738" x2="242.341" y2="150.738"/>
	</g>
	<polyline fill="none" stroke="#010101" stroke-width="7" stroke-miterlimit="10" points="314.341,190.738 341.341,118.739 
		368.341,190.738 	"/>
	<polyline fill="none" stroke="#010101" stroke-width="7" stroke-miterlimit="10" points="170.341,187.738 170.341,115.739 
		224.341,187.738 224.341,115.739 	"/>
	<polyline fill="none" stroke="#010101" stroke-width="7" stroke-miterlimit="10" points="386.341,187.738 386.341,115.739 
		440.341,187.738 440.341,115.739 	"/>
	<g>
		<line fill="none" stroke="#010101" stroke-width="7" stroke-miterlimit="10" x1="52.341" y1="154.24" x2="79.341" y2="154.24"/>
		<path fill="none" stroke="#010101" stroke-width="7" stroke-miterlimit="10" d="M68.151,123.739c-6.35-5.6-14.68-9-23.81-9
			c-19.88,0-36,16.12-36,36c0,19.882,16.12,36,36,36s36-16.118,36-36"/>
		<polygon fill="none" stroke="#010101" stroke-width="4" stroke-miterlimit="10" points="53.341,123.739 53.341,123.739 
			53.341,123.739 		"/>
	</g>
</g>
</svg>
